<svg version="1.1" xmlns="http://www.w3.org/2000/svg" xmlns:xlink="http://www.w3.org/1999/xlink">
  <symbol id="location" width="20" height="20" viewBox="0 0 20 25"> 
        <path d="M8 0C5.87827 0 3.84344 0.842855 2.34315 2.34315C0.842855 3.84344 0 5.87827 0 8C0 13.4 7.05 19.5 7.35 19.76C7.53113 19.9149 7.76165 20.0001 8 20.0001C8.23835 20.0001 8.46887 19.9149 8.65 19.76C9 19.5 16 13.4 16 8C16 5.87827 15.1571 3.84344 13.6569 2.34315C12.1566 0.842855 10.1217 0 8 0ZM8 17.65C5.87 15.65 2 11.34 2 8C2 6.4087 2.63214 4.88258 3.75736 3.75736C4.88258 2.63214 6.4087 2 8 2C9.5913 2 11.1174 2.63214 12.2426 3.75736C13.3679 4.88258 14 6.4087 14 8C14 11.34 10.13 15.66 8 17.65ZM8 4C7.20887 4 6.43552 4.2346 5.77772 4.67412C5.11992 5.11365 4.60723 5.73836 4.30448 6.46927C4.00173 7.20017 3.92252 8.00444 4.07686 8.78036C4.2312 9.55628 4.61216 10.269 5.17157 10.8284C5.73098 11.3878 6.44371 11.7688 7.21964 11.9231C7.99556 12.0775 8.79983 11.9983 9.53073 11.6955C10.2616 11.3928 10.8864 10.8801 11.3259 10.2223C11.7654 9.56448 12 8.79113 12 8C12 6.93913 11.5786 5.92172 10.8284 5.17157C10.0783 4.42143 9.06087 4 8 4ZM8 10C7.60444 10 7.21776 9.8827 6.88886 9.66294C6.55996 9.44318 6.30362 9.13082 6.15224 8.76537C6.00087 8.39991 5.96126 7.99778 6.03843 7.60982C6.1156 7.22186 6.30608 6.86549 6.58579 6.58579C6.86549 6.30608 7.22186 6.1156 7.60982 6.03843C7.99778 5.96126 8.39991 6.00087 8.76537 6.15224C9.13082 6.30362 9.44318 6.55996 9.66294 6.88886C9.8827 7.21776 10 7.60444 10 8C10 8.53043 9.78929 9.03914 9.41421 9.41421C9.03914 9.78929 8.53043 10 8 10Z"/>
    </symbol>
	<symbol id="age" width="20" height="20" viewBox="0 0 25 25">
        <path d="M13.71 11.7096C14.6904 10.9383 15.406 9.88056 15.7572 8.68358C16.1085 7.4866 16.0779 6.2099 15.6698 5.0311C15.2617 3.85231 14.4963 2.83003 13.4801 2.10649C12.4639 1.38296 11.2474 0.994141 10 0.994141C8.75255 0.994141 7.53611 1.38296 6.51993 2.10649C5.50374 2.83003 4.73834 3.85231 4.33021 5.0311C3.92208 6.2099 3.89151 7.4866 4.24276 8.68358C4.59401 9.88056 5.3096 10.9383 6.29 11.7096C4.61007 12.3827 3.14428 13.499 2.04889 14.9396C0.953495 16.3801 0.26956 18.0909 0.0699967 19.8896C0.0555513 20.021 0.0671132 20.1538 0.104022 20.2807C0.140931 20.4075 0.202464 20.5259 0.285108 20.629C0.452016 20.8371 0.69478 20.9705 0.959997 20.9996C1.22521 21.0288 1.49116 20.9514 1.69932 20.7845C1.90749 20.6176 2.04082 20.3749 2.07 20.1096C2.28958 18.1548 3.22168 16.3494 4.68822 15.0384C6.15475 13.7274 8.0529 13.0027 10.02 13.0027C11.9871 13.0027 13.8852 13.7274 15.3518 15.0384C16.8183 16.3494 17.7504 18.1548 17.97 20.1096C17.9972 20.3554 18.1144 20.5823 18.2991 20.7467C18.4838 20.911 18.7228 21.0011 18.97 20.9996H19.08C19.3421 20.9695 19.5817 20.8369 19.7466 20.6309C19.9114 20.4248 19.9881 20.162 19.96 19.8996C19.7595 18.0958 19.0719 16.3806 17.9708 14.9378C16.8698 13.4951 15.3969 12.3791 13.71 11.7096ZM10 10.9996C9.20887 10.9996 8.43551 10.765 7.77772 10.3255C7.11992 9.88599 6.60723 9.26128 6.30448 8.53037C6.00173 7.79947 5.92251 6.9952 6.07686 6.21928C6.2312 5.44335 6.61216 4.73062 7.17157 4.17121C7.73098 3.6118 8.44371 3.23084 9.21964 3.0765C9.99556 2.92215 10.7998 3.00137 11.5307 3.30412C12.2616 3.60687 12.8863 4.11956 13.3259 4.77736C13.7654 5.43515 14 6.20851 14 6.99964C14 8.0605 13.5786 9.07792 12.8284 9.82806C12.0783 10.5782 11.0609 10.9996 10 10.9996Z"/>
    </symbol>
	<symbol id="phone" width="20" height="20" viewBox="0 0 20 25">
        <path d="M13.94 4.56036H17.52L16.73 5.36036C16.5437 5.54772 16.4392 5.80117 16.4392 6.06536C16.4392 6.32954 16.5437 6.58299 16.73 6.77036C16.9173 6.95661 17.1708 7.06115 17.435 7.06115C17.6992 7.06115 17.9526 6.95661 18.14 6.77036L20.64 4.27036C20.8262 4.08299 20.9308 3.82954 20.9308 3.56536C20.9308 3.30117 20.8262 3.04772 20.64 2.86036L18.14 0.360356C17.9487 0.19653 17.7026 0.110924 17.4509 0.120645C17.1992 0.130366 16.9605 0.234699 16.7824 0.412793C16.6043 0.590888 16.5 0.829627 16.4903 1.0813C16.4805 1.33298 16.5662 1.57905 16.73 1.77036L17.52 2.56036H13.94C13.6748 2.56036 13.4204 2.66571 13.2329 2.85325C13.0453 3.04079 12.94 3.29514 12.94 3.56036C12.94 3.82557 13.0453 4.07993 13.2329 4.26746C13.4204 4.455 13.6748 4.56036 13.94 4.56036ZM18.44 11.0004C18.22 11.0004 17.99 10.9304 17.77 10.8804C17.3245 10.7822 16.8866 10.6518 16.46 10.4904C15.9961 10.3216 15.4861 10.3304 15.0283 10.515C14.5704 10.6996 14.1971 11.047 13.98 11.4904L13.76 11.9404C12.786 11.3985 11.891 10.7256 11.1 9.94036C10.3147 9.14937 9.6418 8.25435 9.09998 7.28036L9.51998 7.00036C9.96334 6.78327 10.3108 6.40989 10.4954 5.95205C10.68 5.49421 10.6888 4.98427 10.52 4.52036C10.3612 4.09278 10.2309 3.65515 10.13 3.21036C10.08 2.99036 10.04 2.76036 10.01 2.53036C9.88854 1.82598 9.5196 1.1881 8.9696 0.731596C8.4196 0.275093 7.72467 0.0299652 7.00998 0.0403564H4.00998C3.57901 0.0363098 3.15223 0.12517 2.75869 0.300887C2.36515 0.476604 2.01409 0.735052 1.72941 1.05864C1.44473 1.38222 1.23311 1.76335 1.10897 2.17607C0.98482 2.58879 0.951058 3.02342 1.00998 3.45036C1.54272 7.63974 3.45601 11.5322 6.44763 14.513C9.43925 17.4938 13.3387 19.3929 17.53 19.9104H17.91C18.6474 19.9114 19.3594 19.6409 19.91 19.1504C20.2263 18.8674 20.4791 18.5205 20.6514 18.1327C20.8238 17.7448 20.9119 17.3248 20.91 16.9004V13.9004C20.8977 13.2057 20.6448 12.5369 20.1943 12.008C19.7439 11.4791 19.1238 11.123 18.44 11.0004ZM18.94 17.0004C18.9398 17.1423 18.9094 17.2827 18.8508 17.412C18.7921 17.5413 18.7066 17.6566 18.6 17.7504C18.4882 17.8468 18.3576 17.9189 18.2164 17.962C18.0752 18.005 17.9265 18.0181 17.78 18.0004C14.0349 17.5202 10.5562 15.8068 7.89269 13.1306C5.22917 10.4545 3.53239 6.96769 3.06998 3.22036C3.05406 3.07387 3.06801 2.92569 3.11098 2.78475C3.15395 2.64381 3.22505 2.51304 3.31998 2.40036C3.41369 2.29369 3.52904 2.2082 3.65836 2.14957C3.78767 2.09095 3.92799 2.06054 4.06998 2.06036H7.06998C7.30253 2.05518 7.5296 2.13124 7.71212 2.27543C7.89464 2.41962 8.02119 2.62293 8.06998 2.85036C8.10998 3.12369 8.15998 3.39369 8.21998 3.66036C8.3355 4.1875 8.48924 4.70554 8.67998 5.21036L7.27998 5.86036C7.16028 5.91528 7.0526 5.9933 6.96314 6.08995C6.87367 6.1866 6.80418 6.29997 6.75865 6.42355C6.71312 6.54713 6.69245 6.67849 6.69783 6.81008C6.7032 6.94167 6.73452 7.0709 6.78998 7.19036C8.22918 10.2731 10.7072 12.7512 13.79 14.1904C14.0334 14.2904 14.3065 14.2904 14.55 14.1904C14.6747 14.1457 14.7893 14.0768 14.8871 13.9875C14.985 13.8983 15.0641 13.7905 15.12 13.6704L15.74 12.2704C16.2569 12.4552 16.7846 12.6088 17.32 12.7304C17.5866 12.7904 17.8566 12.8404 18.13 12.8804C18.3574 12.9291 18.5607 13.0557 18.7049 13.2382C18.8491 13.4207 18.9252 13.6478 18.92 13.8804L18.94 17.0004Z"/>
    </symbol>
    <symbol id="mailto" width="20" height="20" viewBox="0 0 20 20"> 
        <path d="M17 0H3C2.20435 0 1.44129 0.316071 0.87868 0.87868C0.316071 1.44129 0 2.20435 0 3V13C0 13.7956 0.316071 14.5587 0.87868 15.1213C1.44129 15.6839 2.20435 16 3 16H17C17.7956 16 18.5587 15.6839 19.1213 15.1213C19.6839 14.5587 20 13.7956 20 13V3C20 2.20435 19.6839 1.44129 19.1213 0.87868C18.5587 0.316071 17.7956 0 17 0ZM3 2H17C17.2652 2 17.5196 2.10536 17.7071 2.29289C17.8946 2.48043 18 2.73478 18 3L10 7.88L2 3C2 2.73478 2.10536 2.48043 2.29289 2.29289C2.48043 2.10536 2.73478 2 3 2ZM18 13C18 13.2652 17.8946 13.5196 17.7071 13.7071C17.5196 13.8946 17.2652 14 17 14H3C2.73478 14 2.48043 13.8946 2.29289 13.7071C2.10536 13.5196 2 13.2652 2 13V5.28L9.48 9.85C9.63202 9.93777 9.80446 9.98397 9.98 9.98397C10.1555 9.98397 10.328 9.93777 10.48 9.85L18 5.28V13Z"/>
    </symbol>
    <symbol id="github" width="20" height="20" viewBox="0 0 20 25">
        <path d="M9.07032 20.5029C9.0703 20.3563 9.03802 20.2114 8.97578 20.0786C8.91353 19.9458 8.82284 19.8284 8.71014 19.7345C8.59743 19.6407 8.46546 19.5728 8.32359 19.5356C8.18171 19.4985 8.03341 19.493 7.88917 19.5195C6.58009 19.7598 4.92726 19.7959 4.4878 18.5615C4.10461 17.6055 3.46987 16.7711 2.65089 16.1465C2.59246 16.1148 2.53677 16.0782 2.48439 16.0372C2.41272 15.8481 2.2854 15.6852 2.11925 15.5699C1.95311 15.4547 1.75592 15.3925 1.55372 15.3916H1.54884C1.28444 15.3916 1.03077 15.4962 0.843354 15.6827C0.655937 15.8692 0.55004 16.1224 0.548842 16.3868C0.544932 17.2022 1.35984 17.7247 1.69044 17.9014C2.08029 18.2931 2.39359 18.7541 2.61427 19.2608C2.97853 20.2842 4.03712 21.837 7.08009 21.6368C7.08109 21.6719 7.08204 21.7051 7.08253 21.7354L7.08692 22.003C7.08692 22.2682 7.19228 22.5226 7.37982 22.7101C7.56735 22.8976 7.82171 23.003 8.08692 23.003C8.35214 23.003 8.60649 22.8976 8.79403 22.7101C8.98157 22.5226 9.08692 22.2682 9.08692 22.003L9.08204 21.6846C9.07716 21.4951 9.07032 21.2207 9.07032 20.5029ZM19.7373 5.37694C19.7691 5.25194 19.8003 5.11327 19.8277 4.95702C19.9894 3.84261 19.8484 2.70521 19.4195 1.66402C19.3653 1.52828 19.2822 1.40603 19.1758 1.30582C19.0694 1.20562 18.9425 1.12989 18.8037 1.08395C18.4477 0.963828 17.1333 0.727498 14.6197 2.33395C12.5302 1.84224 10.3551 1.84224 8.26565 2.33395C5.76222 0.751028 4.4546 0.965828 4.10206 1.07911C3.95993 1.12319 3.82946 1.19851 3.72021 1.29957C3.61097 1.40062 3.52572 1.52483 3.47071 1.66311C3.03301 2.72429 2.89355 3.88488 3.06739 5.01955C3.09181 5.14748 3.11817 5.26565 3.14552 5.37404C2.31709 6.47748 1.87583 7.8234 1.89015 9.20314C1.88745 9.51097 1.90163 9.81873 1.93263 10.125C2.26663 14.7275 5.26663 16.1094 7.35694 16.584C7.31349 16.709 7.27394 16.8428 7.23878 16.9844C7.17612 17.2417 7.21805 17.5133 7.35538 17.7398C7.49271 17.9662 7.71422 18.1289 7.97135 18.1923C8.22848 18.2556 8.50024 18.2144 8.72703 18.0777C8.95382 17.941 9.11714 17.7199 9.18116 17.4629C9.24479 17.1297 9.40788 16.8236 9.64894 16.585C9.7947 16.4574 9.90023 16.2902 9.9527 16.1037C10.0052 15.9172 10.0023 15.7195 9.94447 15.5346C9.88663 15.3497 9.77631 15.1856 9.62693 15.0623C9.47754 14.9389 9.29554 14.8617 9.10304 14.8399C5.64894 14.4453 4.14942 13.0381 3.92384 9.94143C3.89885 9.69616 3.88761 9.44968 3.89015 9.20315C3.87411 8.2198 4.19898 7.26123 4.80958 6.49026C4.87093 6.40988 4.93628 6.33263 5.00538 6.25881C5.12781 6.12181 5.21013 5.95373 5.2433 5.77301C5.27646 5.5923 5.25919 5.40594 5.19338 5.2344C5.12592 5.05393 5.07397 4.86803 5.03811 4.67873C4.95664 4.14044 4.98337 3.59132 5.11671 3.06349C5.98585 3.30896 6.80383 3.70853 7.53171 4.24317C7.65208 4.32334 7.78828 4.3767 7.93108 4.39961C8.07388 4.42253 8.21994 4.41447 8.35935 4.37599C10.3805 3.82749 12.5113 3.82783 14.5322 4.37699C14.6724 4.41543 14.8192 4.42303 14.9626 4.39926C15.106 4.37549 15.2425 4.32091 15.3628 4.2393C16.0872 3.70244 16.9018 3.2993 17.768 3.04887C17.9008 3.56402 17.9305 4.10032 17.8554 4.62699C17.8192 4.83453 17.7626 5.03799 17.6865 5.23442C17.6207 5.40596 17.6034 5.59232 17.6366 5.77303C17.6697 5.95375 17.7521 6.12183 17.8745 6.25883C17.9516 6.34574 18.0288 6.43949 18.0981 6.52738C18.7044 7.2853 19.0238 8.23285 19 9.20314C19.0018 9.46275 18.9893 9.72226 18.9624 9.98048C18.7422 13.0361 17.2368 14.4443 13.7666 14.8398C13.5741 14.8618 13.392 14.9392 13.2427 15.0626C13.0933 15.1861 12.983 15.3503 12.9253 15.5353C12.8675 15.7202 12.8647 15.918 12.9172 16.1046C12.9698 16.2911 13.0754 16.4583 13.2212 16.5859C13.4698 16.831 13.6333 17.1493 13.6875 17.4941C13.7551 17.7618 13.7861 18.0375 13.7798 18.3135V20.6475C13.77 21.2949 13.77 21.7803 13.77 22.0029C13.77 22.2682 13.8754 22.5225 14.0629 22.71C14.2504 22.8976 14.5048 23.0029 14.77 23.0029C15.0352 23.0029 15.2896 22.8976 15.4771 22.71C15.6647 22.5225 15.77 22.2682 15.77 22.0029C15.77 21.7861 15.77 21.3106 15.7798 20.6631V18.3135C15.7878 17.8713 15.7358 17.4301 15.625 17.002C15.5933 16.8614 15.5545 16.7226 15.5088 16.586C17.03 16.3332 18.4123 15.5489 19.4094 14.3726C20.4065 13.1962 20.9539 11.7042 20.9541 10.1621C20.987 9.84355 21.0024 9.5234 21 9.20314C21.0222 7.82191 20.5773 6.47366 19.7373 5.37696L19.7373 5.37694Z"/>
    </symbol>
    <symbol id="telegram" width="20" height="20" viewBox="0 0 20 25">
        <path d="M22.2646 2.42778C21.9799 2.19091 21.6363 2.03567 21.2704 1.97858C20.9044 1.92149 20.5298 1.96469 20.1865 2.10357L2.2656 9.33892C1.88235 9.4966 1.55612 9.76711 1.3302 10.1145C1.10428 10.462 0.989366 10.8699 1.0007 11.2841C1.01204 11.6984 1.1491 12.0994 1.39368 12.434C1.63826 12.7685 1.9788 13.0208 2.3701 13.1573L5.9951 14.418L8.0156 21.0997C8.04306 21.1889 8.0829 21.2739 8.13398 21.352C8.14173 21.364 8.15266 21.373 8.1609 21.3846C8.2199 21.467 8.29121 21.5397 8.37233 21.6004C8.3954 21.618 8.41749 21.6345 8.44215 21.6501C8.53708 21.7131 8.64222 21.7591 8.75288 21.7862L8.76472 21.7872L8.77143 21.7901C8.83796 21.8036 8.90568 21.8105 8.97358 21.8106C8.98011 21.8106 8.98591 21.8074 8.99238 21.8073C9.09484 21.8055 9.19641 21.7879 9.29347 21.755C9.31605 21.7473 9.3354 21.7345 9.35731 21.7252C9.42969 21.6952 9.49826 21.6567 9.5616 21.6106C9.61232 21.5679 9.66306 21.5251 9.71382 21.4824L12.416 18.4991L16.4462 21.6211C16.8011 21.8974 17.2378 22.0475 17.6875 22.0479C18.1586 22.0473 18.6153 21.8847 18.9808 21.5874C19.3464 21.2901 19.5987 20.8762 19.6953 20.4151L22.958 4.39849C23.0319 4.03801 23.0065 3.66421 22.8843 3.31708C22.7622 2.96995 22.548 2.66255 22.2646 2.42778ZM9.3701 14.7364C9.23144 14.8745 9.13666 15.0505 9.09764 15.2422L8.78813 16.7462L8.00407 14.1532L12.0693 12.0362L9.3701 14.7364ZM17.6719 20.0401L12.9092 16.3506C12.7099 16.1966 12.4599 16.1234 12.2091 16.1455C11.9583 16.1675 11.7249 16.2833 11.5556 16.4697L10.6902 17.4249L10.9961 15.9385L18.0791 8.85549C18.2481 8.68665 18.3511 8.46285 18.3694 8.22461C18.3877 7.98638 18.3201 7.74947 18.1788 7.55681C18.0375 7.36414 17.8318 7.22845 17.5991 7.17433C17.3664 7.1202 17.122 7.15121 16.9101 7.26174L6.74485 12.5544L3.02049 11.1915L20.999 3.99905L17.6719 20.0401Z"/>
    </symbol>
</svg>
